<?xml version="1.0" encoding="UTF-8" standalone="no"?>
<svg xmlns:dc="http://purl.org/dc/elements/1.1/" xmlns:cc="http://creativecommons.org/ns#" xmlns:rdf="http://www.w3.org/1999/02/22-rdf-syntax-ns#" xmlns:svg="http://www.w3.org/2000/svg" xmlns="http://www.w3.org/2000/svg" xmlns:sodipodi="http://sodipodi.sourceforge.net/DTD/sodipodi-0.dtd" xmlns:inkscape="http://www.inkscape.org/namespaces/inkscape" viewBox="0 0 90 95" height="95" width="90" xml:space="preserve" version="1.1" id="svg2" inkscape:version="0.48.3.1 r9886" sodipodi:docname="openvpn4ucs_logo.svg"><sodipodi:namedview pagecolor="#ffffff" bordercolor="#666666" borderopacity="1" objecttolerance="10" gridtolerance="10" guidetolerance="10" inkscape:pageopacity="0" inkscape:pageshadow="2" inkscape:window-width="1920" inkscape:window-height="1025" id="namedview9" showgrid="true" fit-margin-top="10" fit-margin-left="5" fit-margin-right="5" fit-margin-bottom="5" inkscape:snap-grids="false" inkscape:zoom="5.0179402" inkscape:cx="2.0375052" inkscape:cy="62.429357" inkscape:window-x="-2" inkscape:window-y="-3" inkscape:window-maximized="1" inkscape:current-layer="g14"><inkscape:grid type="xygrid" id="grid2992" empspacing="5" visible="true" enabled="true" snapvisiblegridlinesonly="true"/></sodipodi:namedview><metadata id="metadata8"><rdf:RDF><cc:Work rdf:about=""><dc:format>image/svg+xml</dc:format><dc:type rdf:resource="http://purl.org/dc/dcmitype/StillImage"/><dc:title/></cc:Work></rdf:RDF></metadata><defs id="defs6"/><g transform="matrix(1.25,0,0,-1.25,-24.687648,95.230427)" id="g10"><g transform="matrix(0.1,0,0,0.1,112,0)" id="g12"><g transform="matrix(2999.91,0,0,2999.91,1.73228,1.73218)" id="g14"><g id="g2986" transform="matrix(0.21322688,0,0,0.21322688,-0.29465181,0.0130822)"><path style="fill:#f38123" d="M 0.51,0.0015706 C 0.4870833,9.077e-4 0.4594586,0.00176027 0.4486116,0.00346547 0.4377647,0.00517053 0.4198453,0.0088827 0.4087908,0.01171473 c -0.0110545,0.002832 -0.0203785,0.0054798 -0.02072,0.0058839 -3.415e-4,4.0407e-4 0.005967,0.0382347 0.0140189,0.08406804 0.008052,0.0458333 0.0206257,0.11731466 0.0279417,0.15884743 0.007316,0.0415328 0.0133019,0.0775842 0.0133019,0.0801143 0,0.00253 -0.008625,0.008697 -0.0191667,0.0137045 C 0.4136249,0.3593399 0.3963504,0.3717501 0.3857787,0.3819101 0.3738678,0.3933573 0.3622645,0.4089078 0.3552697,0.4227976 0.3490617,0.4351257 0.3421758,0.4519145 0.3399684,0.4601061 c -0.002207,0.008192 -0.003913,0.0271388 -0.00379,0.0421049 1.4533e-4,0.0177256 0.00251,0.0339931 0.006784,0.0466667 0.003608,0.0107006 0.0104854,0.0264716 0.0152823,0.0350467 0.004797,0.008575 0.0180966,0.0243251 0.0295548,0.035 0.0114582,0.0106749 0.0275303,0.0227091 0.0357157,0.0267426 0.008185,0.004034 0.0238084,0.009659 0.0347177,0.0125 0.0109092,0.002841 0.0297047,0.005166 0.0417677,0.005166 0.012063,0 0.0307605,-0.002299 0.0415501,-0.00511 0.0107896,-0.00281 0.026505,-0.008858 0.0349232,-0.0134401 0.008418,-0.004582 0.0226471,-0.0146056 0.0316199,-0.0222753 0.008973,-0.00767 0.0220946,-0.0228885 0.0291597,-0.0338195 0.007065,-0.010931 0.0158234,-0.0295157 0.019463,-0.0412994 0.004358,-0.01411 0.006617,-0.0309107 0.006617,-0.0492084 0,-0.0216095 -0.001949,-0.033198 -0.008771,-0.0521489 C 0.6497385,0.4326305 0.6416205,0.4156661 0.6365221,0.4083327 0.631424,0.401 0.61999577,0.38797473 0.6111263,0.37938827 0.6022573,0.37080227 0.58525,0.35859467 0.5733333,0.35226127 0.5575921,0.34389527 0.5518428,0.33904857 0.5523106,0.33453967 0.55266476,0.33112667 0.5597876,0.28558337 0.5681384,0.2333334 0.5764894,0.1810834 0.5877941,0.1106778 0.5932598,0.0768765 0.5987258,0.04307524 0.6027688,0.0149907 0.6022438,0.01446647 0.60171993,0.01394213 0.59012553,0.0110973 0.57647883,0.00814453 0.56283213,0.00519177 0.53291667,0.0022335 0.51,0.0015706 z m -0.26124774,0.065159 c -2.304e-4,3.467e-5 -0.00663,0.0041596 -0.0142203,0.0091667 -0.007591,0.0050071 -0.0225907,0.01510126 -0.0333333,0.0224316 -0.0107426,0.0073303 -0.0353318,0.02909683 -0.0546428,0.04837003 -0.0225288,0.0224848 -0.0436598,0.047827 -0.05896734,0.0707189 -0.0131211,0.0196222 -0.03047821,0.0496057 -0.03857135,0.06663 C 0.04092403,0.30107107 0.02889386,0.33225 0.02228347,0.35333333 0.01567307,0.37441667 0.00795504,0.40760917 0.00513228,0.42709447 0.00230953,0.44657973 0,0.48051047 0,0.50249603 c 0,0.025087 0.00250776,0.0544156 0.00673382,0.0787528 0.00370361,0.0213284 0.01177822,0.0541477 0.01794358,0.0729317 0.0061654,0.0187841 0.01732161,0.046994 0.02479167,0.0626888 0.0074701,0.0156948 0.02419508,0.0445194 0.03716673,0.0640547 0.01553741,0.0233994 0.03587702,0.0477837 0.05961008,0.071464 0.021603,0.021555 0.0492489,0.044856 0.0690564,0.0582033 0.0181671,0.012242 0.0450311,0.0282038 0.0596978,0.0354707 0.0146667,0.007267 0.0430907,0.0188112 0.0631646,0.0256538 0.0200738,0.006843 0.0553238,0.0159617 0.0783333,0.0202647 0.0257617,0.004818 0.054694,0.007861 0.0753026,0.007922 0.018407,5.381e-5 0.0505409,-0.002276 0.0714088,-0.005177 0.0208679,-0.002901 0.0508076,-0.008946 0.0665328,-0.013432 0.0157252,-0.004486 0.0405912,-0.0129124 0.0552579,-0.0187242 0.0146667,-0.005812 0.0364167,-0.0157461 0.0483333,-0.0220761 0.0119167,-0.00633 0.0319958,-0.018367 0.0446202,-0.0267489 0.0126245,-0.008382 0.0351245,-0.0259377 0.05,-0.039013 0.0148755,-0.0130753 0.0322964,-0.0296624 0.0387131,-0.0368602 0.006417,-0.007198 0.0179269,-0.0206713 0.0255783,-0.0299411 0.007651,-0.00927 0.0219601,-0.0302212 0.0317971,-0.0465586 0.009837,-0.0163374 0.0218469,-0.0379544 0.0266887,-0.0480377 0.004842,-0.0100833 0.0126661,-0.0283591 0.0173873,-0.0406129 0.004721,-0.0122537 0.0121612,-0.0377537 0.0165332,-0.0566667 0.004372,-0.0189129 0.009831,-0.0469777 0.0121309,-0.0623661 0.002658,-0.0177853 0.003474,-0.0432886 0.002238,-0.07 C 0.99795177,0.46057613 0.9938774,0.42516667 0.98996643,0.405 0.9860555,0.38483333 0.9790678,0.35708333 0.9744382,0.34333333 0.9698082,0.32958333 0.9586992,0.30283493 0.9497507,0.28389233 0.9408021,0.2649498 0.926396,0.2386998 0.91773707,0.225559 0.90907817,0.21241823 0.90113127,0.20091667 0.90007733,0.2 c -0.001054,-9.1667e-4 -0.007068,-0.008417 -0.0133654,-0.0166667 -0.006297,-0.00825 -0.0200806,-0.024 -0.0306301,-0.035 -0.0105495,-0.011 -0.0286086,-0.027202 -0.0401314,-0.0360044 C 0.8044277,0.1035265 0.7868541,0.0904015 0.77689797,0.08316227 0.76694187,0.07592303 0.75628077,0.07 0.75320663,0.07 0.74975763,0.07 0.74182993,0.0798915 0.73250243,0.09583333 0.7241893,0.11004167 0.70094693,0.15016667 0.6808528,0.185 0.6607587,0.2198333 0.6419021,0.2530262 0.6389493,0.258762 0.6339683,0.268438 0.6339933,0.2695358 0.6392903,0.2739704 0.6424303,0.2765994 0.6495,0.2815564 0.655,0.284987 c 0.0055,0.00343 0.0165884,0.0123365 0.0246408,0.0197916 0.008052,0.007455 0.0229224,0.0246812 0.0330444,0.0382802 0.010122,0.013599 0.0232063,0.036113 0.0290763,0.0500311 0.00587,0.0139181 0.0131249,0.0360878 0.0161222,0.0492659 0.003081,0.0135452 0.00545,0.038431 0.00545,0.0572509 0,0.0183099 -0.002307,0.0442638 -0.005126,0.0576753 -0.002819,0.0134115 -0.009871,0.0348846 -0.0156709,0.0477179 -0.0058,0.0128333 -0.015263,0.0308333 -0.0210298,0.04 C 0.71574,0.6541669 0.702917,0.6700891 0.6930112,0.6803833 0.6831052,0.6906775 0.6666652,0.7052641 0.6564773,0.712798 0.6462895,0.720332 0.6252895,0.7324211 0.6098106,0.7396628 0.5943318,0.7469048 0.5690049,0.755387 0.5535288,0.7585127 0.5323133,0.7627977 0.5159112,0.7637457 0.4868621,0.7623647 0.4634092,0.7612497 0.4397954,0.7579887 0.426512,0.7540297 0.4145099,0.7504527 0.3951306,0.7427824 0.3834469,0.7369855 0.3717632,0.7311885 0.353083,0.7198828 0.3419355,0.7118616 0.330788,0.7038406 0.3155427,0.6907652 0.3080571,0.6828056 0.3005711,0.6748456 0.2891313,0.6608336 0.2826345,0.651667 0.27613705,0.6425 0.26709461,0.6275 0.26253956,0.61833333 c -0.004555,-0.009167 -0.0114004,-0.0257891 -0.0152119,-0.0369387 -0.003811,-0.0111496 -0.008707,-0.0336283 -0.0108797,-0.0499525 -0.002172,-0.0163243 -0.00309,-0.0394519 -0.002038,-0.0513946 0.001051,-0.0119428 0.004853,-0.0330472 0.008449,-0.0468988 0.003596,-0.0138516 0.0112765,-0.0352152 0.0170688,-0.0474747 0.005792,-0.0122595 0.0171829,-0.0311383 0.0253124,-0.0419529 0.008129,-0.0108146 0.0212366,-0.026201 0.029127,-0.034192 0.00789,-0.007991 0.0220971,-0.0197791 0.0315706,-0.0261957 0.009473,-0.006417 0.0172632,-0.0137005 0.0173104,-0.0161864 4.733e-5,-0.002486 -0.009664,-0.020702 -0.0215807,-0.0404803 C 0.32975,0.20688837 0.32,0.1899872 0.32,0.18910853 0.32,0.18822983 0.31346915,0.17644597 0.305487,0.16292213 0.29750486,0.1493983 0.28156837,0.12220833 0.2700726,0.1025 0.25857682,0.08279167 0.24898267,0.066695 0.24875226,0.0667296 z" id="path2990" inkscape:connector-curvature="0"/><path style="fill:#093464" d="M 0.51,0.0015706 C 0.4870833,9.077e-4 0.4594586,0.00176027 0.4486116,0.00346547 0.4377647,0.00517053 0.4198453,0.0088827 0.4087908,0.01171473 0.3977363,0.01454673 0.3883836,0.01719453 0.3880071,0.01759863 0.38763056,0.0180027 0.3900821,0.03333333 0.3934551,0.05166667 0.39682833,0.07 0.40576677,0.121 0.41331847,0.165 c 0.007552,0.044 0.0173944,0.10011913 0.0218726,0.12470923 0.004478,0.0245901 0.008142,0.0471415 0.008142,0.0501142 0,0.003302 -0.007457,0.008947 -0.0191667,0.0145094 -0.0105417,0.005007 -0.0278162,0.0174172 -0.0383879,0.0275772 -0.0119109,0.0114472 -0.0235142,0.0269977 -0.030509,0.0408875 -0.006208,0.0123281 -0.0130939,0.0291169 -0.0153013,0.0373085 -0.002207,0.008192 -0.003913,0.0271388 -0.00379,0.0421049 1.4533e-4,0.0177256 0.00251,0.0339931 0.006784,0.0466667 0.003608,0.0107006 0.0104854,0.0264716 0.0152823,0.0350467 0.004797,0.008575 0.0180966,0.0243251 0.0295548,0.035 0.0114582,0.0106749 0.0275303,0.0227091 0.0357157,0.0267426 0.008185,0.004034 0.0238084,0.009659 0.0347177,0.0125 0.0109092,0.002841 0.0297047,0.005166 0.0417677,0.005166 0.012063,0 0.0307605,-0.002299 0.0415501,-0.00511 0.0107896,-0.00281 0.0266517,-0.008938 0.0352491,-0.0136175 0.008597,-0.004679 0.0233391,-0.0152501 0.0327593,-0.0234907 0.00942,-0.008241 0.0230063,-0.0249877 0.0301912,-0.0372158 0.007185,-0.0122281 0.0154305,-0.0303802 0.0183235,-0.0403379 0.002905,-0.009999 0.00526,-0.0304299 0.00526,-0.0456347 0,-0.0213353 -0.001973,-0.0330121 -0.008771,-0.051895 -0.004824,-0.0134009 -0.012942,-0.0303653 -0.0180404,-0.0376987 C 0.631424,0.401 0.61999577,0.38797473 0.6111263,0.37938827 0.6022573,0.37080227 0.58525,0.35859467 0.5733333,0.35226127 0.5575921,0.34389527 0.5518428,0.33904857 0.5523106,0.33453967 0.55266476,0.33112667 0.5597876,0.28558337 0.5681384,0.2333334 0.5764894,0.1810834 0.5877941,0.1106778 0.5932598,0.0768765 0.5987258,0.04307524 0.6027688,0.0149907 0.6022438,0.01446647 0.60171993,0.01394213 0.59012553,0.0110973 0.57647883,0.00814453 0.56283213,0.00519177 0.53291667,0.0022335 0.51,0.0015706 z" id="path2988" inkscape:connector-curvature="0" sodipodi:nodetypes="scsccssscscccccscsscccsssccsscsscss"/></g></g></g></g></svg>